<?xml version="1.0" encoding="UTF-8"?>
<svg id="_レイヤー_1" data-name="レイヤー_1" xmlns="http://www.w3.org/2000/svg" version="1.1" viewBox="0 0 32 32">
  <!-- Generator: Adobe Illustrator 30.2.1, SVG Export Plug-In . SVG Version: 2.1.1 Build 1)  -->
  <defs>
    <style>
      .st0 {
        fill: #63b63c;
      }

      .st1 {
        fill: #e60012;
      }

      .st2 {
        fill: #005bac;
      }

      .st3 {
        fill: #e8b71c;
      }
    </style>
  </defs>
  <path class="st1" d="M25.54,0h-8.88v8.26h1.54c.28,0,.4.34.19.52l-4.66,3.89c-.11.09-.27.09-.38,0l-4.66-3.89c-.21-.18-.09-.52.19-.52h1.54V0H1.53C.69,0,0,.69,0,1.53v28.93c0,.85.69,1.53,1.53,1.53h24.01c.85,0,1.53-.69,1.53-1.53V1.53c0-.85-.69-1.53-1.53-1.53ZM13.54,14.82c2.22,0,4.03,1.8,4.03,4.03s-1.8,4.03-4.03,4.03-4.03-1.8-4.03-4.03,1.8-4.03,4.03-4.03ZM21.31,29.78H5.76c-.01-1.38.13-3.35,1.84-4.84.86-.86,3.11-1.03,5.94-1.03s5.16.25,5.94,1.03c1.71,1.49,1.85,3.46,1.84,4.84Z"/>
  <g>
    <rect class="st3" x="29.15" y="3.35" width="2.85" height="6.41" rx=".67" ry=".67"/>
    <rect class="st0" x="29.15" y="12.79" width="2.85" height="6.41" rx=".67" ry=".67"/>
    <rect class="st2" x="29.15" y="22.24" width="2.85" height="6.41" rx=".67" ry=".67"/>
  </g>
</svg>